<svg xmlns="http://www.w3.org/2000/svg" height="40" viewBox="0 -960 960 960" width="40"><path d="M438.334-438.667H221q-17.833 0-30.083-12.406-12.25-12.407-12.25-29.833 0-17.427 12.25-29.594 12.25-12.166 30.083-12.166h217.334V-740q0-17.466 12.271-29.9 12.272-12.433 29.5-12.433t29.728 12.433q12.5 12.434 12.5 29.9v217.334h217.334q17.183 0 29.424 12.283 12.242 12.284 12.242 29.711 0 17.426-12.242 29.716-12.241 12.289-29.424 12.289H522.333v217.334q0 17.183-12.467 29.424-12.467 12.242-29.983 12.242-17.233 0-29.391-12.242-12.158-12.241-12.158-29.424v-217.334Z"/></svg>